<svg width="24" height="24" viewBox="0 0 24 24" fill="none" xmlns="http://www.w3.org/2000/svg">
<path d="M14.85 7.57489C14.7 7.49989 14.55 7.42489 14.4 7.34989C14.325 7.27489 14.175 7.27489 14.1 7.19989C12.525 6.67489 11.1 6.89989 10.2 7.12489C10.125 7.12489 10.05 7.19989 9.97501 7.19989C9.82501 7.27489 9.75001 7.27489 9.67501 7.34989C9.60001 7.34989 9.52501 7.42489 9.45001 7.42489C9.45001 7.42489 9.37501 7.42489 9.37501 7.49989L9.30001 7.57489C8.62501 7.94989 8.02501 8.47489 7.50001 9.14989C6.75001 10.1249 6.45001 11.1749 6.45001 12.3749V16.7249C6.45001 18.1499 6.97501 19.4999 8.02501 20.4749C9.00001 21.4499 10.35 22.0499 11.775 22.0499H12.525C13.95 22.0499 15.3 21.4499 16.275 20.4749C17.25 19.4999 17.85 18.0749 17.85 16.7249V12.3749C17.7 10.2749 16.575 8.47489 14.85 7.57489ZM12.6 9.74989L13.5 8.39989C13.5 8.32489 13.575 8.32489 13.575 8.32489H13.65C13.65 8.32489 13.65 8.32489 13.725 8.32489C13.8 8.32489 13.8 8.39989 13.8 8.39989L14.625 9.74989V9.89989L13.725 11.2499C13.725 11.3249 13.65 11.3249 13.65 11.3249H13.5C13.425 11.3249 13.425 11.2499 13.425 11.2499L12.6 9.89989V9.74989ZM11.925 11.5499L12.15 11.4749C12.15 11.4749 12.225 11.4749 12.225 11.5499L13.05 12.8999V13.0499L12.075 14.3999C12 14.4749 12 14.4749 12 14.4749H11.925C11.925 14.4749 11.85 14.4749 11.85 14.3999L11.025 13.0499V12.8999L11.925 11.5499ZM9.30001 9.67489L10.2 8.32489C10.2 8.32489 10.2 8.24989 10.275 8.24989H10.35C10.35 8.24989 10.425 8.24989 10.5 8.32489L11.325 9.67489V9.82489L10.425 11.1749C10.425 11.1749 10.425 11.2499 10.35 11.2499H10.2C10.2 11.2499 10.125 11.2499 10.125 11.1749L9.30001 9.82489V9.67489ZM7.65001 12.7499L8.55001 11.3999C8.55001 11.3249 8.62501 11.3249 8.62501 11.3249H8.77501C8.85001 11.3249 8.85001 11.3999 8.85001 11.3999L9.67501 12.8249V12.8999L8.77501 14.2499C8.77501 14.3249 8.70001 14.3249 8.70001 14.3249H8.55001C8.47501 14.3249 8.47501 14.2499 8.47501 14.2499L7.65001 12.8999V12.7499ZM9.75001 18.8249L8.85001 20.1749C8.85001 20.2499 8.77501 20.2499 8.77501 20.2499H8.70001C8.62501 20.2499 8.62501 20.2499 8.55001 20.1749L7.65001 18.7499V18.5999L8.62501 17.3249C8.62501 17.2499 8.70001 17.2499 8.70001 17.2499H8.85001C8.92501 17.2499 8.92501 17.3249 8.92501 17.3249L9.75001 18.6749V18.8249ZM10.35 17.6249H10.2C10.2 17.6249 10.125 17.6249 10.125 17.5499L9.30001 16.1999V16.0499L10.2 14.6999C10.2 14.6999 10.2 14.6249 10.275 14.6249H10.35C10.35 14.6249 10.425 14.6249 10.5 14.6999L11.325 16.0499V16.1999L10.425 17.5499C10.425 17.5499 10.425 17.6249 10.35 17.6249ZM13.05 19.7249L12.075 21.0749C12 21.1499 12 21.1499 12 21.1499H11.925C11.925 21.1499 11.85 21.1499 11.85 21.0749L11.025 19.7249V19.5749L11.925 18.2249C11.925 18.2249 11.925 18.1499 12 18.1499H12.15C12.15 18.1499 12.225 18.1499 12.225 18.2249L13.05 19.5749V19.7249ZM13.65 17.6999H13.5C13.425 17.6999 13.425 17.6249 13.425 17.6249L12.6 16.2749V16.1249L13.5 14.7749C13.5 14.6999 13.575 14.6999 13.575 14.6999H13.65C13.65 14.6999 13.65 14.6999 13.725 14.6999C13.8 14.6999 13.8 14.7749 13.8 14.7749L14.625 16.1249V16.2749L13.65 17.6999ZM16.35 18.8249L15.45 20.1749C15.45 20.2499 15.375 20.2499 15.375 20.2499H15.3C15.225 20.2499 15.225 20.2499 15.15 20.1749L14.25 18.7499V18.5999L15.225 17.3249C15.225 17.2499 15.3 17.2499 15.3 17.2499H15.45C15.525 17.2499 15.525 17.3249 15.525 17.3249L16.35 18.6749V18.8249ZM16.35 13.0499L15.45 14.3999C15.45 14.4749 15.375 14.4749 15.375 14.4749H15.3C15.225 14.4749 15.225 14.4749 15.15 14.3999L14.25 12.9749V12.8249L15.225 11.5499C15.225 11.4749 15.3 11.4749 15.3 11.4749H15.45C15.525 11.4749 15.525 11.5499 15.525 11.5499L16.35 12.8999V13.0499Z" fill="#97979D"/>
<path d="M15.825 3.8999C15.825 5.3249 15.15 6.5999 14.025 7.2749C12.45 6.7499 11.025 6.9749 10.125 7.1999C9.60002 6.8249 9.15002 6.3749 8.85002 5.7749C8.55002 5.1749 8.40002 4.5749 8.40002 3.8999C9.37502 3.8999 10.275 4.1999 10.95 4.8749C10.95 3.8249 11.325 2.7749 12.075 2.0249C12.9 2.8499 13.275 3.9749 13.2 5.0249C13.575 4.6499 14.025 4.3499 14.325 4.1999C14.85 3.9749 15.3 3.8999 15.825 3.8999Z" fill="#97979D"/>
</svg>
