<svg width="24" height="24" viewBox="0 0 24 24" fill="none" xmlns="http://www.w3.org/2000/svg">
<path d="M3 10V15.7143C3 16.3238 3.225 16.9333 3.675 17.3143C4.125 17.6952 4.65 18 5.25 18H18.75C19.35 18 19.95 17.7714 20.325 17.3143C20.7 16.8571 21 16.3238 21 15.7143V10H3ZM8.625 14.5714C8.625 14.8762 8.475 15.181 8.325 15.4095C8.1 15.5619 7.8 15.7143 7.5 15.7143H6.375C6.075 15.7143 5.775 15.5619 5.55 15.4095C5.4 15.181 5.25 14.8762 5.25 14.5714V13.4286C5.25 13.1238 5.4 12.819 5.55 12.5905C5.775 12.3619 6.075 12.2857 6.375 12.2857H7.5C7.8 12.2857 8.1 12.4381 8.325 12.5905C8.55 12.819 8.625 13.1238 8.625 13.4286V14.5714Z" fill="white"/>
<path d="M21 7V8H3V7C3 6.46667 3.225 5.93333 3.675 5.6C4.125 5.26667 4.65 5 5.25 5H18.75C19.35 5 19.95 5.2 20.325 5.6C20.7 6 21 6.46667 21 7Z" fill="#04B3EF"/>
</svg>
