<svg width="24" height="24" viewBox="0 0 24 24" fill="none" xmlns="http://www.w3.org/2000/svg">
<path d="M2 11V16.7143C2 17.3238 2.25 17.9333 2.75 18.3143C3.25 18.6952 3.83333 19 4.5 19H19.5C20.1667 19 20.8333 18.7714 21.25 18.3143C21.6667 17.8571 22 17.3238 22 16.7143V11H2ZM8.25 15.5714C8.25 15.8762 8.08333 16.181 7.91667 16.4095C7.66667 16.5619 7.33333 16.7143 7 16.7143H5.75C5.41667 16.7143 5.08333 16.5619 4.83333 16.4095C4.66667 16.181 4.5 15.8762 4.5 15.5714V14.4286C4.5 14.1238 4.66667 13.819 4.83333 13.5905C5.08333 13.3619 5.41667 13.2857 5.75 13.2857H7C7.33333 13.2857 7.66667 13.4381 7.91667 13.5905C8.16667 13.819 8.25 14.1238 8.25 14.4286V15.5714Z" fill="#97979D"/>
<path d="M22 7.66667V9H2V7.66667C2 6.95556 2.25 6.24444 2.75 5.8C3.25 5.35556 3.83333 5 4.5 5H19.5C20.1667 5 20.8333 5.26667 21.25 5.8C21.6667 6.33333 22 6.95556 22 7.66667Z" fill="#97979D"/>
</svg>
