<svg width="24" height="24" viewBox="0 0 24 24" fill="none" xmlns="http://www.w3.org/2000/svg">
<path d="M13.3 5.3999H18.9C19.4 5.3999 19.9 5.5999 20.3 5.8999C20.7 6.1999 21 6.6999 21 7.1999V7.2999V7.3999V11.6999C20.6 11.4999 20.2 11.3999 19.8 11.3999C19.1 11.3999 18.5 11.6999 18 12.0999C17.8 11.3999 17.3 10.7999 16.7 10.3999C16.1 9.9999 15.3 9.8999 14.6 9.9999C13.9 10.0999 13.2 10.4999 12.7 10.9999C12.2 11.5999 12 12.2999 12 12.9999C12 13.7999 12.3 14.5999 12.9 15.0999C11.5 15.1999 10.6 16.4999 10.6 17.7999V17.8999H4.1C3.6 17.8999 3 17.6999 2.6 17.2999C2.3 17.1999 2 16.6999 2 16.1999V15.9999V9.1999H7.9H8.1C8.5 9.1999 8.8 8.9999 9.1 8.7999L9.2 8.6999L13.3 5.3999Z" fill="white"/>
<path d="M7.9 3C8.3 3 8.8 3.1 9.1 3.4L9.2 3.5L11.2 5.2L8.4 7.6H8.3C8.2 7.7 8.1 7.7 8 7.7H7.9H2V5.1C2 4.6 2.2 4 2.6 3.6C2.9 3.3 3.5 3 4 3H4.1H7.9Z" fill="#04B3EF"/>
<path d="M15.1 15.3001C15.7 15.3001 16.2 15.1001 16.6 14.7001C17 14.3001 17.2 13.8001 17.2 13.2001C17.2 12.6001 17 12.1001 16.6 11.7001C16.2 11.3001 15.7 11.1001 15.1 11.1001C14.5 11.1001 14 11.3001 13.6 11.7001C13.2 12.1001 13 12.6001 13 13.2001C13 13.8001 13.2 14.3001 13.6 14.7001C14 15.1001 14.5 15.3001 15.1 15.3001Z" fill="#04B3EF"/>
<path d="M15.1 21.0002C17.7 21.0002 18.7 19.5002 18.7 18.0002C18.7 17.0002 18 16.2002 17.2 16.2002H13.1C12.3 16.2002 11.6 17.0002 11.6 18.0002C11.5 19.5002 12.5 21.0002 15.1 21.0002Z" fill="#04B3EF"/>
<path d="M21.5 14.1001C21.5 14.5001 21.3 15.0001 21 15.3001C20.7 15.6001 20.3 15.8001 19.8 15.8001C19.4 15.8001 18.9 15.6001 18.6 15.3001C18.3 15.0001 18.1 14.6001 18.1 14.1001C18.1 13.7001 18.3 13.2001 18.6 12.9001C18.9 12.6001 19.3 12.4001 19.8 12.4001C20.2 12.4001 20.7 12.6001 21 12.9001C21.3 13.2001 21.5 13.7001 21.5 14.1001Z" fill="#04B3EF"/>
<path d="M19.1 20.1C19.5 19.5001 19.7 18.8001 19.7 18.1C19.7 17.6 19.6 17.2 19.4 16.8H20.9C21.6 16.8 22.1 17.4 22.1 18C22 19 21.2 20.1 19.1 20.1Z" fill="#04B3EF"/>
</svg>
