<svg width="24" height="24" viewBox="0 0 24 24" fill="none" xmlns="http://www.w3.org/2000/svg">
<path fill-rule="evenodd" clip-rule="evenodd" d="M10.8002 7.2001C10.8002 8.3001 10.4002 9.3001 9.6002 10.1001C8.8002 10.9001 7.8002 11.3001 6.7002 11.3001C5.60019 11.3001 4.6002 10.9001 3.8002 10.1001C3.1002 9.3001 2.7002 8.3001 2.7002 7.2001C2.7002 6.1001 3.1002 5.1001 3.9002 4.3001C4.7002 3.5001 5.7002 3.1001 6.8002 3.1001C7.9002 3.1001 8.9002 3.5001 9.7002 4.3001C10.4002 5.1001 10.8002 6.1001 10.8002 7.2001Z" fill="#97979D"/>
<path fill-rule="evenodd" clip-rule="evenodd" d="M21.3001 7.2001C21.3001 8.3001 20.9001 9.3001 20.1001 10.1001C19.3001 10.9001 18.3001 11.3001 17.2001 11.3001C16.1001 11.3001 15.1001 10.9001 14.3001 10.1001C13.5001 9.3001 13.1001 8.3001 13.1001 7.2001C13.1001 6.1001 13.5001 5.1001 14.3001 4.3001C15.1001 3.5001 16.1001 3.1001 17.2001 3.1001C18.3001 3.1001 19.3001 3.5001 20.1001 4.3001C20.9001 5.1001 21.3001 6.1001 21.3001 7.2001Z" fill="#97979D"/>
<path fill-rule="evenodd" clip-rule="evenodd" d="M21.4999 13.2C21.4999 12.5 20.8999 11.9 20.1999 12.1C18.3999 12.5 16.6999 13.3 15.3999 14.6C14.3999 15.6 13.5999 16.9 13.1999 18.2C12.7999 19.5 13.6999 20.8 15.0999 20.8H20.3999C20.9999 20.8 21.4999 20.3 21.4999 19.7V13.2Z" fill="#97979D"/>
<path fill-rule="evenodd" clip-rule="evenodd" d="M2.5 13.2C2.5 12.5 3.1 11.9 3.8 12.1C5.6 12.5 7.3 13.3 8.6 14.6C9.6 15.6 10.4 16.9 10.8 18.2C11.2 19.5 10.3 20.8 8.9 20.8H3.6C3 20.8 2.5 20.3 2.5 19.7V13.2Z" fill="#97979D"/>
</svg>
