<svg width="24" height="24" viewBox="0 0 24 24" fill="none" xmlns="http://www.w3.org/2000/svg">
<path d="M21.6576 18.6307L18.8379 21.4279C18.4216 21.8547 17.8699 21.9993 17.3326 22C14.9564 21.9288 12.7104 20.7616 10.8662 19.5631C7.83922 17.3609 5.06178 14.6303 3.31862 11.3305C2.65005 9.94681 1.86558 8.1813 1.94053 6.63681C1.94722 6.05581 2.10378 5.4856 2.51297 5.1111L5.33273 2.29275C5.91827 1.7947 6.48452 1.9669 6.85922 2.54703L9.12773 6.84873C9.3665 7.35835 9.22953 7.90438 8.8733 8.26853L7.83443 9.30686C7.7703 9.39471 7.72947 9.49471 7.72843 9.60355C8.1268 11.1456 9.33365 12.5669 10.3998 13.545C11.4659 14.5231 12.6119 15.8483 14.0994 16.162C14.2833 16.2133 14.5085 16.2313 14.64 16.109L15.8485 14.88C16.2651 14.5642 16.8666 14.4099 17.3114 14.6681H17.3326L21.4244 17.0838C22.0251 17.4603 22.0877 18.188 21.6576 18.6307Z" fill="#1DB55A"/>
</svg>
