<svg width="24" height="24" viewBox="0 0 24 24" fill="none" xmlns="http://www.w3.org/2000/svg">
<path fill-rule="evenodd" clip-rule="evenodd" d="M6.25 5.50001C6.24993 4.83164 6.45593 4.1795 6.83993 3.63245C7.22393 3.08539 7.76725 2.67004 8.39587 2.44297C9.02449 2.2159 9.70783 2.18817 10.3528 2.36354C10.9977 2.53892 11.5729 2.90888 12 3.42301C12.5438 2.7615 13.3267 2.34134 14.1785 2.25384C15.0303 2.16634 15.8823 2.41856 16.5492 2.9557C17.2161 3.49284 17.6441 4.27148 17.7401 5.1224C17.8361 5.97333 17.5924 6.82776 17.062 7.50001H18C18.3283 7.50001 18.6534 7.56467 18.9567 7.69031C19.26 7.81595 19.5356 8.0001 19.7678 8.23224C19.9999 8.46439 20.1841 8.73999 20.3097 9.0433C20.4353 9.34661 20.5 9.6717 20.5 10V11.25C20.5 11.4489 20.421 11.6397 20.2803 11.7803C20.1397 11.921 19.9489 12 19.75 12H13.05C13.0106 12 12.9716 11.9923 12.9352 11.9772C12.8988 11.9621 12.8657 11.94 12.8379 11.9121C12.81 11.8843 12.7879 11.8512 12.7728 11.8148C12.7578 11.7784 12.75 11.7394 12.75 11.7V8.24001C12.4674 8.05885 12.2145 7.83523 12 7.57701C11.7855 7.83487 11.5325 8.05815 11.25 8.23901V11.7C11.25 11.7796 11.2184 11.8559 11.1621 11.9121C11.1059 11.9684 11.0296 12 10.95 12H4.25C4.05109 12 3.86032 11.921 3.71967 11.7803C3.57902 11.6397 3.5 11.4489 3.5 11.25V10C3.5 9.6717 3.56466 9.34661 3.6903 9.0433C3.81594 8.73999 4.00009 8.46439 4.23223 8.23224C4.46438 8.0001 4.73998 7.81595 5.04329 7.69031C5.34661 7.56467 5.6717 7.50001 6 7.50001H6.938C6.49113 6.92922 6.24885 6.22492 6.25 5.50001ZM11.25 5.50001C11.25 5.03588 11.0656 4.59076 10.7374 4.26257C10.4092 3.93438 9.96413 3.75001 9.5 3.75001C9.03587 3.75001 8.59075 3.93438 8.26256 4.26257C7.93437 4.59076 7.75 5.03588 7.75 5.50001C7.75 5.96414 7.93437 6.40926 8.26256 6.73745C8.59075 7.06563 9.03587 7.25001 9.5 7.25001C9.96413 7.25001 10.4092 7.06563 10.7374 6.73745C11.0656 6.40926 11.25 5.96414 11.25 5.50001ZM12.75 5.50001C12.75 5.72982 12.7953 5.95739 12.8832 6.16971C12.9712 6.38202 13.1001 6.57494 13.2626 6.73745C13.4251 6.89995 13.618 7.02885 13.8303 7.1168C14.0426 7.20474 14.2702 7.25001 14.5 7.25001C14.7298 7.25001 14.9574 7.20474 15.1697 7.1168C15.382 7.02885 15.5749 6.89995 15.7374 6.73745C15.8999 6.57494 16.0288 6.38202 16.1168 6.16971C16.2047 5.95739 16.25 5.72982 16.25 5.50001C16.25 5.03588 16.0656 4.59076 15.7374 4.26257C15.4092 3.93438 14.9641 3.75001 14.5 3.75001C14.0359 3.75001 13.5908 3.93438 13.2626 4.26257C12.9344 4.59076 12.75 5.03588 12.75 5.50001Z" fill="white"/>
<path d="M11.2502 13.6501C11.2502 13.5705 11.2186 13.4942 11.1623 13.438C11.106 13.3817 11.0297 13.3501 10.9502 13.3501H5.64916C5.45285 13.3503 5.26293 13.4199 5.1129 13.5465C4.96288 13.6731 4.86239 13.8486 4.82916 14.0421C4.60708 15.338 4.60708 16.6622 4.82916 17.9581L5.05316 19.2671C5.12673 19.696 5.33765 20.0894 5.65418 20.3881C5.9707 20.6868 6.37569 20.8745 6.80816 20.9231L7.87316 21.0421C8.89341 21.1562 9.91796 21.2279 10.9442 21.2571C10.984 21.2582 11.0237 21.2512 11.0609 21.2367C11.098 21.2221 11.1319 21.2002 11.1604 21.1723C11.189 21.1445 11.2116 21.1111 11.227 21.0743C11.2424 21.0375 11.2503 20.998 11.2502 20.9581V13.6501ZM13.0562 21.2571C13.0163 21.2582 12.9766 21.2512 12.9394 21.2367C12.9023 21.2221 12.8684 21.2002 12.8399 21.1723C12.8114 21.1445 12.7887 21.1111 12.7733 21.0743C12.7579 21.0375 12.75 20.998 12.7502 20.9581V13.6501C12.7502 13.5705 12.7818 13.4942 12.838 13.438C12.8943 13.3817 12.9706 13.3501 13.0502 13.3501H18.3512C18.7572 13.3501 19.1032 13.6421 19.1712 14.0421C19.3942 15.3381 19.3942 16.6621 19.1712 17.9581L18.9482 19.2671C18.8745 19.6962 18.6635 20.0897 18.3467 20.3884C18.03 20.6871 17.6248 20.8747 17.1922 20.9231L16.1272 21.0421C15.1069 21.1561 14.0824 21.2279 13.0562 21.2571Z" fill="white"/>
</svg>
