<svg width="24" height="24" viewBox="0 0 24 24" fill="none" xmlns="http://www.w3.org/2000/svg">
<g clip-path="url(#clip0_2279_9660)">
<path d="M12 13C14.4 13 16.6 13.7 18.2 14.7C19 15.2 19.7 15.8 20.2 16.4C20.7 17 21 17.8 21 18.5C21 19.3 20.6 20 20 20.5C19.4 21 18.7 21.2 17.9 21.5C16.3 21.9 14.2 22 12 22C9.8 22 7.7 21.9 6.1 21.4C5.3 21.2 4.6 20.9 4 20.4C3.4 19.9 3 19.3 3 18.4C3 17.6 3.4 16.9 3.8 16.3C4.3 15.7 5 15.1 5.8 14.6C7.4 13.7 9.6 13 12 13Z" fill="#04B3EF"/>
<path d="M12 2C13.3 2 14.6 2.5 15.5 3.5C16.5 4.4 17 5.7 17 7C17 8.3 16.5 9.6 15.5 10.5C14.6 11.5 13.3 12 12 12C10.7 12 9.4 11.5 8.5 10.5C7.5 9.6 7 8.3 7 7C7 5.7 7.5 4.4 8.5 3.5C9.4 2.5 10.7 2 12 2Z" fill="white"/>
</g>
<defs>
<clipPath id="clip0_2279_9660">
<rect width="24" height="24" fill="white"/>
</clipPath>
</defs>
</svg>
