<svg width="24" height="24" viewBox="0 0 24 24" fill="none" xmlns="http://www.w3.org/2000/svg">
<path d="M12.5625 4.6875C12.5625 4.23995 12.7403 3.81072 13.0568 3.49426C13.3732 3.17779 13.8024 3 14.25 3H18.75C19.3467 3 19.919 3.23705 20.341 3.65901C20.7629 4.08097 21 4.65326 21 5.25V18.75C21 19.3467 20.7629 19.919 20.341 20.341C19.919 20.7629 19.3467 21 18.75 21H5.25C4.65326 21 4.08097 20.7629 3.65901 20.341C3.23705 19.919 3 19.3467 3 18.75V5.25C3 4.65326 3.23705 4.08097 3.65901 3.65901C4.08097 3.23705 4.65326 3 5.25 3H12C11.6467 3.47025 11.4375 4.05412 11.4375 4.6875V13.4546L8.46075 10.4767C8.40845 10.4245 8.34636 10.383 8.27803 10.3547C8.2097 10.3264 8.13646 10.3118 8.0625 10.3118C7.98854 10.3118 7.9153 10.3264 7.84697 10.3547C7.77864 10.383 7.71655 10.4245 7.66425 10.4767C7.61195 10.529 7.57047 10.5911 7.54216 10.6595C7.51386 10.7278 7.49929 10.801 7.49929 10.875C7.49929 10.949 7.51386 11.0222 7.54216 11.0905C7.57047 11.1589 7.61195 11.221 7.66425 11.2733L11.6017 15.2108C11.654 15.2631 11.7161 15.3047 11.7844 15.3331C11.8528 15.3614 11.926 15.376 12 15.376C12.074 15.376 12.1472 15.3614 12.2156 15.3331C12.2839 15.3047 12.346 15.2631 12.3983 15.2108L16.3358 11.2733C16.4414 11.1676 16.5007 11.0244 16.5007 10.875C16.5007 10.7256 16.4414 10.5824 16.3358 10.4767C16.2301 10.3711 16.0869 10.3118 15.9375 10.3118C15.7881 10.3118 15.6449 10.3711 15.5392 10.4767L12.5625 13.4546V4.6875Z" fill="white"/>
</svg>
