<svg width="24" height="24" viewBox="0 0 24 24" fill="none" xmlns="http://www.w3.org/2000/svg">
<path d="M16.7304 8.65936C18.2885 9.76797 20.1761 10.4271 22.2435 10.4271V6.47209C21.854 6.47209 21.4645 6.44213 21.075 6.35224V9.46835C19.0375 9.46835 17.1199 8.80917 15.5619 7.70056V15.7605C15.5619 19.7755 12.2959 23.0414 8.28096 23.0414C6.78283 23.0414 5.37459 22.5919 4.20605 21.8129C5.52441 23.1612 7.38209 24.0002 9.41954 24.0002C13.4345 24.0002 16.7004 20.7343 16.7004 16.7193L16.7304 8.65936ZM18.1686 4.67434C17.3896 3.80543 16.8503 2.69681 16.7304 1.46835V0.958984H15.6218C15.9214 2.51704 16.8502 3.86535 18.1686 4.67434ZM6.78283 18.7268C6.3334 18.1575 6.0937 17.4384 6.0937 16.7193C6.0937 14.8916 7.59182 13.3934 9.41954 13.3934C9.74913 13.3934 10.1087 13.4534 10.4383 13.5433V9.49831C10.0488 9.43839 9.65924 9.43839 9.26973 9.43839V12.5845C8.94014 12.4946 8.61055 12.4346 8.251 12.4346C6.42328 12.4346 4.92516 13.9328 4.92516 15.7605C4.95512 17.0489 5.70418 18.1575 6.78283 18.7268Z" fill="#EC1B52"/>
<path d="M15.5922 7.70056C17.1502 8.80917 19.0379 9.46835 21.1053 9.46835V6.35224C19.9667 6.11254 18.948 5.51329 18.1989 4.67434C16.8806 3.86535 15.9517 2.51704 15.6821 0.958984H12.8056V16.7193C12.8056 18.547 11.3075 20.0451 9.47981 20.0451C8.40115 20.0451 7.44235 19.5358 6.81314 18.7268C5.73449 18.1875 4.98542 17.0489 4.98542 15.7605C4.98542 13.9328 6.48355 12.4346 8.31127 12.4346C8.67082 12.4346 9.0004 12.4946 9.32999 12.5845V9.43839C5.34497 9.49831 2.16895 12.7343 2.16895 16.7193C2.16895 18.6968 2.94797 20.4946 4.23636 21.8129C5.4049 22.5919 6.78318 23.0414 8.31127 23.0414C12.3262 23.0414 15.5922 19.7755 15.5922 15.7605V7.70056Z" fill="#0D2A45"/>
<path d="M21.0749 6.35206V5.51311C20.0562 5.51311 19.0375 5.21348 18.1685 4.67416C18.9476 5.54307 19.9663 6.11236 21.0749 6.35206ZM15.6517 0.958801C15.6217 0.808989 15.5918 0.659176 15.5918 0.509363V0H11.6067V15.7603C11.6067 17.588 10.1086 19.0861 8.2809 19.0861C7.74157 19.0861 7.23221 18.9663 6.78277 18.7266C7.38202 19.5356 8.34082 20.0449 9.44944 20.0449C11.2772 20.0449 12.7753 18.5468 12.7753 16.7191V0.958801H15.6517ZM9.29963 9.4382V8.53933C8.97004 8.4794 8.64045 8.4794 8.31086 8.4794C4.26592 8.44944 1 11.7154 1 15.7603C1 18.2772 2.28839 20.4944 4.23595 21.8127C2.94757 20.4944 2.16854 18.6966 2.16854 16.7191C2.16854 12.7341 5.34457 9.49813 9.29963 9.4382Z" fill="#67AACE"/>
</svg>
