<svg width="24" height="24" viewBox="0 0 24 24" fill="none" xmlns="http://www.w3.org/2000/svg">
<path d="M19.5584 17.4146C18.6617 18.2081 17.3621 18.7772 15.6597 19.122C13.9573 19.4667 12.2029 19.5675 10.3966 19.4244L6.96576 22V18.7805C5.83516 18.4293 4.95147 17.974 4.31469 17.4146C3.56095 16.7512 2.97616 15.7984 2.56031 14.5561C2.14445 13.3138 1.93652 12.0455 1.93652 10.7512C1.93652 9.45691 2.14445 8.18862 2.56031 6.94634C2.97616 5.70407 3.5642 4.74797 4.32444 4.07805C5.08467 3.40813 6.17304 2.89431 7.58954 2.53659C9.00605 2.17886 10.455 2 11.9365 2C13.418 2 14.867 2.17886 16.2835 2.53659C17.7 2.89431 18.7884 3.40813 19.5486 4.07805C20.3088 4.74797 20.8969 5.70407 21.3127 6.94634C21.7286 8.18862 21.9365 9.45691 21.9365 10.7512C21.9365 12.0455 21.7286 13.3138 21.3127 14.5561C20.8969 15.7984 20.3121 16.7512 19.5584 17.4146ZM14.3927 12.6341L15.6597 12.8488C15.5558 11.2878 14.9547 9.95447 13.8566 8.84878C12.7585 7.74309 11.4297 7.13821 9.87025 7.03415L10.0847 8.30244C11.2023 8.44553 12.1639 8.92033 12.9697 9.72683C13.7754 10.5333 14.2497 11.5024 14.3927 12.6341ZM10.2991 9.60976L10.533 11.0146C11.0528 11.2748 11.4362 11.6585 11.6831 12.1659L13.0866 12.4C12.9307 11.7106 12.5993 11.1154 12.0925 10.6146C11.5856 10.1138 10.9879 9.77886 10.2991 9.60976ZM8.21333 10.761V9.5122C8.21333 9.29106 8.1321 9.06992 7.96966 8.84878C7.80722 8.62764 7.63503 8.46829 7.45309 8.37073C7.27116 8.27317 7.1347 8.26341 7.04374 8.34146L6.14705 9.25854C5.64023 9.76585 5.5655 10.5561 5.92288 11.6293C6.28025 12.7024 6.96251 13.7431 7.96966 14.7512C8.97681 15.7593 10.0164 16.4423 11.0886 16.8C12.1607 17.1577 12.9437 17.0829 13.4375 16.5756L14.3537 15.6585C14.4446 15.5805 14.4414 15.4472 14.3439 15.2585C14.2465 15.0699 14.0873 14.8976 13.8663 14.7415C13.6454 14.5854 13.4245 14.5073 13.2036 14.5073H11.956L11.2348 15.1317C10.663 14.9756 9.95147 14.4715 9.10027 13.6195C8.24906 12.7675 7.74549 12.0488 7.58954 11.4634L8.21333 10.761ZM9.46089 4.51707L9.65582 5.78537C10.9554 5.81138 12.1574 6.15285 13.2621 6.80976C14.3667 7.46667 15.2439 8.34472 15.8936 9.4439C16.5434 10.5431 16.8878 11.7431 16.9268 13.0439L18.1938 13.2585C18.1938 12.0748 17.9632 10.9431 17.5018 9.86341C17.0405 8.78374 16.42 7.85366 15.6402 7.07317C14.8605 6.29268 13.9313 5.67154 12.8527 5.20976C11.7741 4.74797 10.6435 4.51707 9.46089 4.51707Z" fill="#8243D2"/>
</svg>
