<svg width="24" height="24" viewBox="0 0 24 24" fill="none" xmlns="http://www.w3.org/2000/svg">
<g clip-path="url(#clip0_1741_20165)">
<path d="M7.93333 13.8667H4.77333C4.45126 12.6431 4.45126 11.3569 4.77333 10.1333H7.93333C7.85112 10.7523 7.8066 11.3757 7.8 12C7.8066 12.6243 7.85112 13.2477 7.93333 13.8667ZM5.54667 8.26667H8.26667C8.57772 7.11496 9.01597 6.00144 9.57333 4.94667C7.87246 5.5276 6.44116 6.70772 5.54667 8.26667ZM18.4533 8.26667C17.5518 6.70841 16.1168 5.52911 14.4133 4.94667C14.9784 5.99638 15.4127 7.11135 15.7067 8.26667H18.4533ZM12 19.4267C12.7923 18.3008 13.3958 17.0534 13.7867 15.7333H10.2133C10.6042 17.0534 11.2077 18.3008 12 19.4267ZM12 4.56C11.207 5.69028 10.6035 6.94225 10.2133 8.26667H13.7867C13.3965 6.94225 12.793 5.69028 12 4.56ZM5.54667 15.7333C6.44678 17.2875 7.87605 18.466 9.57333 19.0533C9.01597 17.9986 8.57772 16.885 8.26667 15.7333H5.54667ZM24 2.66667V21.3333C24 22.0406 23.719 22.7189 23.219 23.219C22.7189 23.719 22.0406 24 21.3333 24H2.66667C1.95942 24 1.28115 23.719 0.781048 23.219C0.280951 22.7189 0 22.0406 0 21.3333V2.66667C0 1.95942 0.280951 1.28115 0.781048 0.781048C1.28115 0.280951 1.95942 0 2.66667 0H21.3333C22.0406 0 22.7189 0.280951 23.219 0.781048C23.719 1.28115 24 1.95942 24 2.66667ZM21.3333 12C21.3333 10.154 20.7859 8.34954 19.7604 6.81468C18.7348 5.27982 17.2772 4.08354 15.5717 3.37712C13.8663 2.67071 11.9896 2.48588 10.1792 2.846C8.36867 3.20613 6.70563 4.09505 5.40034 5.40034C4.09505 6.70563 3.20613 8.36867 2.846 10.1792C2.48588 11.9896 2.67071 13.8663 3.37712 15.5717C4.08354 17.2772 5.27982 18.7348 6.81468 19.7604C8.34954 20.7859 10.154 21.3333 12 21.3333C14.4754 21.3333 16.8493 20.35 18.5997 18.5997C20.35 16.8493 21.3333 14.4754 21.3333 12ZM16.2 12C16.1934 12.6243 16.1489 13.2477 16.0667 13.8667H19.2267C19.5487 12.6431 19.5487 11.3569 19.2267 10.1333H16.0667C16.1489 10.7523 16.1934 11.3757 16.2 12ZM14.4133 19.0533C16.115 18.4677 17.549 17.2892 18.4533 15.7333H15.7067C15.4127 16.8887 14.9784 18.0036 14.4133 19.0533ZM9.81333 10.1333C9.61431 11.3698 9.61431 12.6302 9.81333 13.8667H14.1867C14.278 13.2485 14.327 12.6248 14.3333 12C14.3273 11.3751 14.2783 10.7515 14.1867 10.1333H9.81333Z" fill="#DD9F27"/>
</g>
<defs>
<clipPath id="clip0_1741_20165">
<rect width="24" height="24" fill="white"/>
</clipPath>
</defs>
</svg>
