<svg width="24" height="24" viewBox="0 0 24 24" fill="none" xmlns="http://www.w3.org/2000/svg">
<path d="M21.5783 7.42862C21.4652 7.02476 21.2447 6.65913 20.9403 6.3706C20.6273 6.07319 20.2438 5.86044 19.8258 5.75245C18.2614 5.34007 11.9941 5.34007 11.9941 5.34007C9.38137 5.31034 6.76925 5.4411 4.17251 5.73162C3.75451 5.8476 3.37166 6.06509 3.05799 6.36477C2.74979 6.66134 2.52655 7.02707 2.40994 7.42778C2.1298 8.93712 1.99369 10.4697 2.00344 12.0048C1.99345 13.5385 2.12922 15.0705 2.40994 16.5817C2.52405 16.9808 2.74646 17.3448 3.05549 17.6389C3.36452 17.933 3.74936 18.1454 4.17251 18.2579C5.75766 18.6695 11.9941 18.6695 11.9941 18.6695C14.6102 18.6992 17.2257 18.5685 19.8258 18.2779C20.2438 18.1699 20.6273 17.9572 20.9403 17.6598C21.2485 17.3657 21.4676 16.9999 21.5775 16.6017C21.865 15.093 22.0047 13.5598 21.9948 12.0239C22.0165 10.4815 21.8769 8.94114 21.5783 7.42778V7.42862ZM10.0017 14.8573V9.15311L15.2161 12.0056L10.0017 14.8573Z" fill="#F16754"/>
</svg>
